<svg width="161" height="134" viewBox="0 0 161 134" fill="none" xmlns="http://www.w3.org/2000/svg">
<g clip-path="url(#clip0_912_1670)">
<path fill-rule="evenodd" clip-rule="evenodd" d="M80.5475 12.7406L82.9698 10.5504C86.9595 6.87662 94.8201 3.34411 100.068 1.81335C108.38 -0.565209 116.74 -0.494559 125.123 1.5543C128.162 2.3079 130.917 3.29701 133.719 4.68646C136.023 5.84041 138.54 7.06502 140.63 8.57223C142.269 9.77328 143.812 11.2334 145.38 12.5522L145.57 12.6935L149.654 16.7677L149.749 16.8619C152.409 19.8292 154.523 23.5501 156.304 27.1061C160.175 34.7128 160.982 40.8123 160.982 49.2197C160.982 57.2267 157.254 66.9058 153.122 73.6882C151.459 76.42 149.773 79.1283 147.826 81.6481C146.092 83.8619 144.287 86.0049 142.554 88.2186C138.16 93.9177 132.58 98.3687 127.355 103.22C126.832 103.691 126.429 104.138 125.883 104.586L119.281 110.002H119.257C115.6 112.946 111.776 115.749 107.929 118.433C104.034 121.189 99.9972 123.944 95.8888 126.37C92.4691 128.395 84.4422 134 80.785 134C77.2941 134 71.6895 130.491 68.721 128.654C65.4438 126.652 62.2616 124.533 59.0556 122.413C54.9234 119.705 50.8387 116.667 46.8966 113.723C44.5455 111.957 42.1945 110.191 39.8909 108.377C38.1573 107.012 36.3287 105.551 34.7613 104.021C34.5001 103.785 34.2626 103.503 33.9776 103.291C31.1041 101.101 28.5868 98.4865 26.022 95.9666C16.5703 86.5701 6.99987 75.4545 2.74897 62.6903C1.79905 59.8879 0.896622 57.0619 0.469157 54.1416C0.0179443 51.2685 0.0179443 48.3248 0.0179443 45.4281C0.0179443 37.0914 4.05511 26.3525 9.06595 19.6879L9.16094 19.5937L14.1005 13.7061L20.2988 8.68998L20.4413 8.59578C22.6736 7.01792 25.0246 5.81686 27.4707 4.59226C39.5822 -1.43656 53.451 -1.22461 65.9663 3.48541C66.8924 3.81511 67.6761 4.02706 68.6023 4.49806C69.2435 4.82776 69.7659 5.20456 70.3834 5.53426C73.2094 7.04147 75.7029 8.47802 78.1252 10.6211C78.6477 11.0921 79.2414 11.4924 79.8114 11.987C80.0251 12.1989 80.2863 12.458 80.5475 12.7406Z" fill="#FEFEFE"/>
<path fill-rule="evenodd" clip-rule="evenodd" d="M5.17126 45.4281C5.17126 52.5167 5.36125 54.2829 7.61731 61.0889C11.5832 72.9817 20.8212 83.5792 29.6555 92.3399C31.9353 94.6007 34.5001 97.2618 37.1124 99.2636C37.7298 99.7346 37.8248 99.8759 38.3473 100.37C42.3369 104.233 57.5357 115.278 61.9053 118.151C65.0876 120.27 77.769 128.89 80.785 128.89C82.3286 128.89 91.3291 123.12 93.2527 121.989C99.8309 118.104 110.304 110.638 116.027 106.046L122.629 100.63C123.152 100.229 123.342 99.9466 123.84 99.4991C128.495 95.1659 134.361 90.4559 138.469 85.1336C143.694 78.3747 143.884 78.987 148.728 71.0506C152.172 65.375 155.829 56.426 155.829 49.2197C155.829 41.3304 155.14 36.1494 151.72 29.3905C150.201 26.3761 148.182 22.82 145.902 20.2766L142.102 16.4615C137.448 12.6228 138.279 12.6699 131.416 9.25518C129.065 8.07767 126.832 7.22987 123.888 6.49982C116.383 4.66291 108.95 4.56871 101.493 6.73532C97.0762 8.00702 89.738 11.2098 86.4608 14.2713L80.5 19.7585C79.2177 18.8872 77.6028 16.9325 76.3204 15.7314C75.6555 15.1427 75.3705 15.0249 74.6818 14.4362C72.5445 12.5286 70.4546 11.3747 67.9373 10.0323C67.1537 9.60843 67.0587 9.44358 66.275 9.04323C65.4913 8.64287 65.0163 8.57222 64.1376 8.24252C52.9523 4.05061 40.5796 3.76801 29.7742 9.16098C27.3757 10.362 25.4521 11.304 23.4098 12.7406L17.734 17.3329L13.1981 22.7494C8.89971 28.4249 5.17126 38.104 5.17126 45.4281ZM115.742 92.5518C115.053 93.2348 110.161 94.3416 108.689 94.53C103.583 95.213 98.4298 94.4358 93.8227 92.4105C100.638 90.5265 104.153 86.8998 106.314 82.543C109.639 84.8038 113.415 88.1244 115.742 92.5518ZM73.3044 42.3901C74.8955 37.7272 77.3891 33.3705 80.69 29.9557L80.9275 30.1912C82.6611 31.7691 84.1335 33.6295 85.4159 35.6077C86.5795 37.4446 87.6007 39.4464 88.4556 41.5423C87.6245 42.4843 86.8408 43.4735 86.1046 44.4626C84.6797 46.3937 83.3973 48.419 82.2574 50.5149C80.3101 48.1128 78.054 45.9462 75.608 44.0387C74.8718 43.4735 74.0881 42.9082 73.3044 42.3901ZM38.7985 63.2791C38.7747 64.2682 41.4108 68.5543 42.2894 69.7318C45.8279 74.4654 50.815 77.9272 56.372 79.6464C55.9921 78.9399 55.6359 78.2334 55.3034 77.4798L55.2796 77.4327C54.2822 74.8422 53.641 72.2752 52.9998 69.826C52.3349 67.3061 51.7174 64.904 50.72 62.6668C47.1103 62.1487 42.8832 62.078 38.7985 63.2791ZM46.7303 91.5156C47.3478 92.2692 52.1449 93.8 53.5698 94.1297C60.1955 95.5898 67.1299 94.5536 72.9957 91.3508C71.547 90.974 70.1459 90.5265 68.7685 89.9849C64.4464 88.2422 60.6229 85.581 57.8682 81.8836C54.1635 83.8383 49.6513 86.9705 46.7303 91.5156ZM64.9451 52.9406C64.1851 47.5476 62.6415 42.2724 57.2507 37.9627C66.4887 39.5641 74.9905 44.9336 80.6425 52.3754C79.8351 54.1416 79.1227 55.9785 78.5052 57.8155C77.9353 57.5329 77.3653 57.2503 76.7716 56.9912C76.6291 56.9206 76.5104 56.8735 76.3679 56.8028C76.2254 56.7557 76.1067 56.685 75.9879 56.6379L75.9642 56.6144C75.513 56.426 75.038 56.2376 74.5868 56.0492L74.563 56.0257C74.4205 55.9786 74.3018 55.9314 74.1831 55.8608H74.1356C73.3994 55.5546 72.6394 55.272 71.8795 55.013L71.8558 54.9894C71.737 54.9423 71.5945 54.8952 71.452 54.8481H71.4283C70.9296 54.6833 70.4546 54.5184 69.9559 54.3536L69.9322 54.33C69.7897 54.3065 69.6709 54.2594 69.5522 54.2123L69.4572 54.1887C69.3385 54.1416 69.2197 54.1181 69.0772 54.071L69.006 54.0474C68.8873 54.0003 68.7448 53.9768 68.626 53.9297H68.5785C68.2223 53.8119 67.8661 53.7177 67.5099 53.6H67.4861C67.3436 53.5529 67.2011 53.5293 67.0824 53.4822L67.0112 53.4587C66.8687 53.4351 66.7499 53.388 66.6074 53.3645L66.5362 53.3409C66.3937 53.2938 66.2512 53.2703 66.1325 53.2467L66.0375 53.2232C65.6813 53.129 65.3013 53.0348 64.9451 52.9406ZM102.016 53.859C100.733 46.2995 100.14 38.5279 105.792 30.6151C94.1077 36.22 85.0597 46.9824 81.2362 59.2756H81.26V59.2991H81.2837H81.3075V59.3227H81.3312H81.355V59.3462H81.3787H81.4025V59.3698H81.4262L81.45 59.3933H81.4737V59.4169H81.4975H81.5212V59.4404L81.5687 59.464L81.6399 59.5111H81.6637H81.6875V59.5346H81.7112V59.5582H81.7349H81.7587V59.5817H81.7824H81.8062V59.6053H81.8299L81.8774 59.6288V59.6524H81.9012H81.9249V59.6759L81.9724 59.6995L82.0674 59.7466L82.1624 59.7937V59.8172H82.1862H82.2099V59.8408H82.2336V59.8643H82.2574H82.2812V59.8879H82.3049H82.3286V59.9114H82.3524L82.3761 59.935H82.3999L82.4474 59.9821H82.4711L82.4949 60.0056L82.5186 60.0292H82.5424L82.5661 60.0527H82.5899L82.6136 60.0763H82.6374V60.0998H82.6611H82.6849V60.1234H82.7086L82.7324 60.1469H82.7561V60.1705H82.7799H82.8036L82.8511 60.2176H82.8749V60.2411H82.8986H82.9223V60.2647H82.9461V60.2882H82.9698H82.9936V60.3118H83.0173L83.0411 60.3353H83.0648L83.1361 60.3824L83.1836 60.406L83.2786 60.4766L83.4448 60.5708L83.4923 60.6179H83.516V60.6415H83.5398H83.5636V60.665H83.5873L83.6823 60.7121C83.7773 60.7828 83.8485 60.8299 83.9435 60.9005L84.086 60.9712C84.181 61.0418 84.2522 61.0889 84.3472 61.1596L84.5135 61.2538C84.5847 61.3009 84.656 61.348 84.7272 61.3951L84.8934 61.5128C84.9647 61.5599 85.0359 61.607 85.1072 61.6541L85.2971 61.7719L85.5109 61.9132C85.5584 61.9603 85.6296 61.9838 85.7009 62.0309L85.8908 62.1722L86.1046 62.3135L86.2946 62.4548L86.4845 62.5961L86.6508 62.6903C86.7458 62.761 86.817 62.8316 86.912 62.8787L86.9358 62.9023L87.0308 62.9729H87.0545C87.1258 63.0436 87.2207 63.0907 87.292 63.1613L87.4107 63.2555C87.5057 63.3026 87.6007 63.3733 87.6957 63.4439L87.7907 63.5146L87.8145 63.5381C87.9094 63.5852 87.9807 63.6559 88.0757 63.7265L88.1232 63.7501L88.2182 63.8443C91.2342 60.5002 94.8201 57.6506 98.786 55.4604C99.8309 54.8717 100.923 54.3536 102.016 53.859ZM45.3529 52.7757C55.5646 58.8752 54.6147 67.4003 58.2481 76.891C63.5439 89.1842 79.3839 92.7402 91.5904 90.291C96.3162 89.3255 101.018 84.9923 104.296 81.4362C85.7009 62.6197 75.0143 54.801 45.3529 52.7757ZM126.12 65.3986C126.049 66.3877 123.057 70.4383 122.083 71.5216C118.164 75.8784 112.987 78.8692 107.359 80.1409C108.262 77.8095 108.903 75.3132 109.544 72.8169C110.351 69.7789 111.135 66.6703 112.607 63.8914C116.597 63.491 121.537 63.6088 126.12 65.3986ZM104.771 78.2334C108.214 69.9673 107.573 59.3227 117.951 53.3645C107.834 53.5764 97.9074 58.2394 91.1392 65.6812L104.771 78.2334Z" fill="#BB4141"/>
<mask id="mask0_912_1670" style="mask-type:luminance" maskUnits="userSpaceOnUse" x="5" y="5" width="151" height="124">
<path d="M5.17126 45.4281C5.17126 52.5167 5.36125 54.2829 7.61731 61.0889C11.5832 72.9817 20.8212 83.5792 29.6555 92.3399C31.9353 94.6007 34.5001 97.2618 37.1124 99.2636C37.7298 99.7346 37.8248 99.8759 38.3473 100.37C42.3369 104.233 57.5357 115.278 61.9053 118.151C65.0876 120.27 77.769 128.89 80.785 128.89C82.3286 128.89 91.3291 123.12 93.2527 121.989C99.8309 118.104 110.304 110.638 116.027 106.046L122.629 100.63C123.152 100.229 123.342 99.9466 123.84 99.4991C128.495 95.1659 134.361 90.4559 138.469 85.1336C143.694 78.3747 143.884 78.987 148.728 71.0506C152.172 65.375 155.829 56.426 155.829 49.2197C155.829 41.3304 155.14 36.1494 151.72 29.3905C150.201 26.3761 148.182 22.82 145.902 20.2766L142.102 16.4615C137.448 12.6228 138.279 12.6699 131.416 9.25518C129.065 8.07767 126.832 7.22987 123.888 6.49982C116.383 4.66291 108.95 4.56871 101.493 6.73532C97.0762 8.00702 89.738 11.2098 86.4608 14.2713L80.5 19.7585C79.2177 18.8872 77.6028 16.9325 76.3204 15.7314C75.6555 15.1427 75.3705 15.0249 74.6818 14.4362C72.5445 12.5286 70.4546 11.3747 67.9373 10.0323C67.1537 9.60843 67.0587 9.44358 66.275 9.04323C65.4913 8.64287 65.0163 8.57222 64.1376 8.24252C52.9523 4.05061 40.5796 3.76801 29.7742 9.16098C27.3757 10.362 25.4521 11.304 23.4098 12.7406L17.734 17.3329L13.1981 22.7494C8.89971 28.4249 5.17126 38.104 5.17126 45.4281ZM115.742 92.5518C115.053 93.2348 110.161 94.3416 108.689 94.53C103.583 95.213 98.4298 94.4358 93.8227 92.4105C100.638 90.5265 104.153 86.8998 106.314 82.543C109.639 84.8038 113.415 88.1244 115.742 92.5518ZM73.3044 42.3901C74.8955 37.7272 77.3891 33.3705 80.69 29.9557L80.9275 30.1912C82.6611 31.7691 84.1335 33.6295 85.4159 35.6077C86.5795 37.4446 87.6007 39.4464 88.4556 41.5423C87.6245 42.4843 86.8408 43.4735 86.1046 44.4626C84.6797 46.3937 83.3973 48.419 82.2574 50.5149C80.3101 48.1128 78.054 45.9462 75.608 44.0387C74.8718 43.4735 74.0881 42.9082 73.3044 42.3901ZM38.7985 63.2791C38.7747 64.2682 41.4108 68.5543 42.2894 69.7318C45.8279 74.4654 50.815 77.9272 56.372 79.6464C55.9921 78.9399 55.6359 78.2334 55.3034 77.4798L55.2796 77.4327C54.2822 74.8422 53.641 72.2752 52.9998 69.826C52.3349 67.3061 51.7174 64.904 50.72 62.6668C47.1103 62.1487 42.8832 62.078 38.7985 63.2791ZM46.7303 91.5156C47.3478 92.2692 52.1449 93.8 53.5698 94.1297C60.1955 95.5898 67.1299 94.5536 72.9957 91.3508C71.547 90.974 70.1459 90.5265 68.7685 89.9849C64.4464 88.2422 60.6229 85.581 57.8682 81.8836C54.1635 83.8383 49.6513 86.9705 46.7303 91.5156ZM64.9451 52.9406C64.1851 47.5476 62.6415 42.2724 57.2507 37.9627C66.4887 39.5641 74.9905 44.9336 80.6425 52.3754C79.8351 54.1416 79.1227 55.9785 78.5052 57.8155C77.9353 57.5329 77.3653 57.2503 76.7716 56.9912C76.6291 56.9206 76.5104 56.8735 76.3679 56.8028C76.2254 56.7557 76.1067 56.685 75.9879 56.6379L75.9642 56.6144C75.513 56.426 75.038 56.2376 74.5868 56.0492L74.563 56.0257C74.4205 55.9786 74.3018 55.9314 74.1831 55.8608H74.1356C73.3994 55.5546 72.6394 55.272 71.8795 55.013L71.8558 54.9894C71.737 54.9423 71.5945 54.8952 71.452 54.8481H71.4283C70.9296 54.6833 70.4546 54.5184 69.9559 54.3536L69.9322 54.33C69.7897 54.3065 69.6709 54.2594 69.5522 54.2123L69.4572 54.1887C69.3385 54.1416 69.2197 54.1181 69.0772 54.071L69.006 54.0474C68.8873 54.0003 68.7448 53.9768 68.626 53.9297H68.5785C68.2223 53.8119 67.8661 53.7177 67.5099 53.6H67.4861C67.3436 53.5529 67.2011 53.5293 67.0824 53.4822L67.0112 53.4587C66.8687 53.4351 66.7499 53.388 66.6074 53.3645L66.5362 53.3409C66.3937 53.2938 66.2512 53.2703 66.1325 53.2467L66.0375 53.2232C65.6813 53.129 65.3013 53.0348 64.9451 52.9406ZM102.016 53.859C100.733 46.2995 100.14 38.5279 105.792 30.6151C94.1077 36.22 85.0597 46.9824 81.2362 59.2756H81.26V59.2991H81.2837H81.3075V59.3227H81.3312H81.355V59.3462H81.3787H81.4025V59.3698H81.4262L81.45 59.3933H81.4737V59.4169H81.4975H81.5212V59.4404L81.5687 59.464L81.6399 59.5111H81.6637H81.6875V59.5346H81.7112V59.5582H81.7349H81.7587V59.5817H81.7824H81.8062V59.6053H81.8299L81.8774 59.6288V59.6524H81.9012H81.9249V59.6759L81.9724 59.6995L82.0674 59.7466L82.1624 59.7937V59.8172H82.1862H82.2099V59.8408H82.2336V59.8643H82.2574H82.2812V59.8879H82.3049H82.3286V59.9114H82.3524L82.3761 59.935H82.3999L82.4474 59.9821H82.4711L82.4949 60.0056L82.5186 60.0292H82.5424L82.5661 60.0527H82.5899L82.6136 60.0763H82.6374V60.0998H82.6611H82.6849V60.1234H82.7086L82.7324 60.1469H82.7561V60.1705H82.7799H82.8036L82.8511 60.2176H82.8749V60.2411H82.8986H82.9223V60.2647H82.9461V60.2882H82.9698H82.9936V60.3118H83.0173L83.0411 60.3353H83.0648L83.1361 60.3824L83.1836 60.406L83.2786 60.4766L83.4448 60.5708L83.4923 60.6179H83.516V60.6415H83.5398H83.5636V60.665H83.5873L83.6823 60.7121C83.7773 60.7828 83.8485 60.8299 83.9435 60.9005L84.086 60.9712C84.181 61.0418 84.2522 61.0889 84.3472 61.1596L84.5135 61.2538C84.5847 61.3009 84.656 61.348 84.7272 61.3951L84.8934 61.5128C84.9647 61.5599 85.0359 61.607 85.1072 61.6541L85.2971 61.7719L85.5109 61.9132C85.5584 61.9603 85.6296 61.9838 85.7009 62.0309L85.8908 62.1722L86.1046 62.3135L86.2946 62.4548L86.4845 62.5961L86.6508 62.6903C86.7458 62.761 86.817 62.8316 86.912 62.8787L86.9358 62.9023L87.0308 62.9729H87.0545C87.1258 63.0436 87.2207 63.0907 87.292 63.1613L87.4107 63.2555C87.5057 63.3026 87.6007 63.3733 87.6957 63.4439L87.7907 63.5146L87.8145 63.5381C87.9094 63.5852 87.9807 63.6559 88.0757 63.7265L88.1232 63.7501L88.2182 63.8443C91.2342 60.5002 94.8201 57.6506 98.786 55.4604C99.8309 54.8717 100.923 54.3536 102.016 53.859ZM45.3529 52.7757C55.5646 58.8752 54.6147 67.4003 58.2481 76.891C63.5439 89.1842 79.3839 92.7402 91.5904 90.291C96.3162 89.3255 101.018 84.9923 104.296 81.4362C85.7009 62.6197 75.0143 54.801 45.3529 52.7757ZM126.12 65.3986C126.049 66.3877 123.057 70.4383 122.083 71.5216C118.164 75.8784 112.987 78.8692 107.359 80.1409C108.262 77.8095 108.903 75.3132 109.544 72.8169C110.351 69.7789 111.135 66.6703 112.607 63.8914C116.597 63.491 121.537 63.6088 126.12 65.3986ZM104.771 78.2334C108.214 69.9673 107.573 59.3227 117.951 53.3645C107.834 53.5764 97.9074 58.2394 91.1392 65.6812L104.771 78.2334Z" fill="white"/>
</mask>
<g mask="url(#mask0_912_1670)">
<path fill-rule="evenodd" clip-rule="evenodd" d="M-45.1746 -7.44183H80.785V30.0499L80.69 29.9557C77.3891 33.3705 74.8955 37.7272 73.3044 42.3902C74.0881 42.9083 74.8718 43.4735 75.6079 44.0387C77.4603 45.4988 79.2177 47.0766 80.785 48.8193V61.7954C71.6658 56.5909 61.2404 53.859 45.353 52.7757C55.5646 58.8752 54.6147 67.4004 58.2481 76.891C62.0478 85.7459 71.3333 90.0791 80.785 90.8798V143.561H-45.1746V-7.44183ZM38.7985 63.2791C38.7747 64.2682 41.4108 68.5543 42.2895 69.7318C45.8279 74.4654 50.815 77.9272 56.372 79.6464C55.9921 78.9399 55.6359 78.2334 55.3034 77.4798L55.2796 77.4327C54.2822 74.8422 53.641 72.2752 52.9998 69.826C52.3349 67.3062 51.7174 64.904 50.72 62.6668C47.1103 62.1487 42.8832 62.078 38.7985 63.2791ZM46.7303 91.5156C47.3478 92.2692 52.1449 93.8 53.5698 94.1297C60.1955 95.5898 67.1299 94.5536 72.9957 91.3508C71.547 90.974 70.1459 90.5265 68.7685 89.9849C64.4464 88.2422 60.6229 85.581 57.8682 81.8837C54.1635 83.8383 49.6513 86.9705 46.7303 91.5156ZM64.9451 52.9406C64.1851 47.5476 62.6415 42.2724 57.2507 37.9627C66.4887 39.5641 74.9905 44.9336 80.6425 52.3754C79.8351 54.1416 79.1227 55.9786 78.5052 57.8155C77.9353 57.5329 77.3653 57.2503 76.7716 56.9912C76.6291 56.9206 76.5104 56.8735 76.3679 56.8028C76.2254 56.7557 76.1067 56.6851 75.9879 56.638L75.9642 56.6144C75.513 56.426 75.038 56.2376 74.5868 56.0492L74.563 56.0257C74.4205 55.9786 74.3018 55.9315 74.1831 55.8608H74.1356C73.3994 55.5547 72.6394 55.2721 71.8795 55.013L71.8558 54.9895C71.737 54.9424 71.5945 54.8953 71.452 54.8482H71.4283C70.9296 54.6833 70.4546 54.5184 69.9559 54.3536L69.9322 54.33C69.7897 54.3065 69.6709 54.2594 69.5522 54.2123L69.4572 54.1887C69.3385 54.1416 69.2197 54.1181 69.0772 54.071L69.006 54.0474C68.8873 54.0003 68.7448 53.9768 68.626 53.9297H68.5785C68.2223 53.8119 67.8661 53.7177 67.5099 53.6H67.4861C67.3436 53.5529 67.2011 53.5293 67.0824 53.4822L67.0112 53.4587C66.8687 53.4351 66.7499 53.388 66.6074 53.3645L66.5362 53.3409C66.3937 53.2938 66.2512 53.2703 66.1325 53.2467L66.0375 53.2232C65.6813 53.129 65.3013 53.0348 64.9451 52.9406Z" fill="#EB5757"/>
</g>
</g>
<defs>
<clipPath id="clip0_912_1670">
<rect width="161" height="134" fill="white"/>
</clipPath>
</defs>
</svg>
