<svg width="127" height="127" viewBox="0 0 127 127" fill="none" xmlns="http://www.w3.org/2000/svg">
<g clip-path="url(#clip0_904_1584)">
<path d="M70.1818 20.641L70.1806 20.6422L65.2941 25.6776L63.5 27.5263L61.7059 25.6776L56.8194 20.6422L56.8165 20.6393C45.1732 8.60162 26.4236 6.80086 13.9501 17.43C-0.513194 29.7752 -1.28312 51.9671 11.6681 65.3574L70.1818 20.641ZM70.1818 20.641C81.8512 8.60042 100.577 6.80177 113.049 17.4293C127.513 29.7745 128.283 51.9666 115.308 65.3569L115.307 65.3574L67.3105 114.917C65.1922 117.103 61.783 117.103 59.6647 114.917L11.6692 65.3585L70.1818 20.641Z" fill="#E81313" stroke="white" stroke-width="5"/>
</g>
<defs>
<clipPath id="clip0_904_1584">
<rect width="127" height="127" fill="white"/>
</clipPath>
</defs>
</svg>
